<?xml version="1.0" encoding="utf-8"?>
<!-- Svg Vector Icons : http://www.onlinewebfonts.com/icon -->
<!DOCTYPE svg PUBLIC "-//W3C//DTD SVG 1.1//EN" "http://www.w3.org/Graphics/SVG/1.1/DTD/svg11.dtd">
<svg version="1.1" xmlns="http://www.w3.org/2000/svg" xmlns:xlink="http://www.w3.org/1999/xlink" x="0px" y="0px" viewBox="0 0 1000 1000" enable-background="new 0 0 1000 1000" xml:space="preserve">
<metadata> Svg Vector Icons : http://www.onlinewebfonts.com/icon </metadata>
<g><g transform="translate(0.000000,511.000000) scale(0.100000,-0.100000)"><path d="M5785.8,4991.7c-201.7-29.7-462.8-112.7-650.7-211.6c-140.4-71.2-217.6-128.6-350.1-261.1c-93-93-187.9-191.9-207.7-221.5l-37.6-53.4l-138.5,39.6c-314.5,91-757.5,67.2-1058.2-59.3c-363.9-152.3-688.3-488.6-785.2-812.9c-35.6-118.7-45.5-369.9-19.8-516.2l15.8-93l-114.7-13.8c-286.8-35.6-603.3-182-814.9-377.8c-174.1-160.2-271-308.6-344.2-520.2c-53.4-152.3-57.4-184-49.4-375.8c5.9-138.5,21.7-247.2,47.5-320.4c160.2-452.9,587.4-783.3,1135.3-874.2l148.3-25.7l5.9-1157.1l4-1159.1l47.5-43.5l49.4-45.5l2320.1-9.9l2320.1-11.9l43.5,49.4l45.5,47.5l4,1174.9l5.9,1174.9l69.2,17.8c413.4,106.8,676.5,253.2,919.7,512.3c160.2,170.1,249.2,310.5,322.4,514.3c47.5,130.5,53.4,170.1,53.4,421.3c-2,249.2-5.9,290.8-53.4,409.4c-148.3,389.6-490.5,733.8-892,898c-114.7,47.5-132.5,61.3-124.6,96.9c65.3,243.3,55.4,540-25.7,773.4C7429.5,4655.5,6602.7,5108.4,5785.8,4991.7z M6365.4,4665.4c310.5-63.3,615.1-233.4,803-447c112.7-128.6,217.6-332.3,251.2-484.6c29.7-148.3,13.8-379.8-39.6-530.1c-77.1-215.6-47.5-280.9,150.3-338.2c419.3-120.7,749.6-411.4,896-789.2c67.3-172.1,65.3-443.1-2-623c-170.1-452.9-589.4-755.6-1167-840.6c-152.3-21.8-144.4,4-156.3-666.6l-9.9-599.3l-2110.5-5.9l-2112.4-4v591.4v593.4l-47.5,37.6c-35.6,27.7-94.9,41.5-213.6,49.4c-569.6,41.6-981,358-1068.1,820.8c-47.5,249.2,45.5,502.4,259.1,716c227.5,227.5,496.5,334.3,858.4,344.2c178,5.9,201.8,9.9,235.4,51.4c47.5,57.4,45.5,124.6-7.9,257.1c-33.6,85-43.5,152.3-43.5,306.6c-2,176,3.9,211.6,51.4,312.5c63.3,134.5,235.4,322.4,395.6,429.2c306.6,203.7,751.6,241.3,1153.1,96.9c211.6-77.1,231.4-69.2,356,118.7c213.6,324.4,575.6,549.9,998.9,621.1C5918.3,4702.9,6226.9,4695,6365.4,4665.4z M7087.3-1393.1c-4-233.4-7.9-425.3-9.9-427.2c-4-2-949.4,0-2102.5,7.9l-2096.6,11.9l-5.9,421.3l-4,419.3l2110.5-4l2112.4-5.9L7087.3-1393.1z"/><path d="M3894.9,3326.3c-259.1-73.2-470.7-304.6-472.7-512.3c0-81.1,69.2-154.3,148.3-154.3c63.3,0,142.4,69.2,158.2,138.5c19.8,89,96.9,170.1,197.8,209.7c73.2,27.7,130.5,31.7,300.6,21.8c201.7-9.9,211.6-7.9,257.1,37.6c65.3,65.3,57.4,176-15.8,231.4c-43.5,31.7-93,39.6-267,45.5C4061.1,3350,3954.2,3342.1,3894.9,3326.3z"/><path d="M3881.1-2910.1c-221.5-59.3-395.6-150.3-666.6-352.1c-201.8-148.3-464.8-276.9-656.7-320.4c-211.6-45.5-466.8-31.7-640.8,39.6c-160.2,63.3-215.6,65.3-271,5.9c-59.3-61.3-55.4-128.6,15.8-282.8c166.1-365.9,464.8-676.5,797.1-830.7c213.6-96.9,397.6-132.5,686.3-132.5c609.2-2,1242.1,193.8,1707,526.1l152.3,110.8l154.3-110.8c397.6-284.8,902-462.8,1483.5-522.2c377.8-39.6,751.6,31.6,1032.5,193.8c255.2,150.3,534,462.8,664.6,745.7c73.2,160.2,79.1,227.5,27.7,294.7c-53.4,67.3-108.8,69.2-274.9,2c-174.1-71.2-429.2-85.1-640.8-39.6c-195.8,43.5-451,172.1-696.2,348.1c-219.5,160.2-454.9,280.9-632.9,326.4c-138.4,35.6-419.3,39.6-567.7,7.9c-134.5-27.7-379.7-140.4-474.7-217.6l-73.2-57.4l-96.9,69.2c-120.7,85-274.9,156.3-429.2,197.8C4334-2870.6,4023.5-2870.6,3881.1-2910.1z M4387.4-3204.9c249.2-59.3,421.3-178,454.9-312.5c27.7-104.8,83.1-158.2,164.2-156.3c81.1,2,132.5,51.4,160.2,156.3c25.7,102.9,94.9,166.1,267,249.2c356,166.2,714,98.9,1133.4-213.6c415.4-308.5,868.3-468.8,1238.2-439.1c81.1,5.9,126.6,2,126.6-11.9c0-9.9-73.2-93-162.2-180c-282.8-278.9-575.6-383.7-1002.8-362c-415.4,19.8-791.2,118.7-1149.2,302.6c-114.7,57.4-261.1,150.3-326.4,203.8c-203.7,172.1-261.1,205.7-316.5,191.8c-27.7-7.9-98.9-57.3-160.2-112.7c-276.9-251.2-710.1-449-1184.8-543.9c-122.6-25.7-269-35.6-474.7-35.6c-271-2-308.6,4-441.1,51.4c-251.2,91-478.7,257.1-615.1,447l-43.5,61.3l136.5-11.9c403.5-33.6,842.6,128.6,1307.4,484.6c122.6,93,338.2,197.8,472.7,229.5C4120.4-3169.3,4235.1-3169.3,4387.4-3204.9z"/></g></g>
</svg>